<svg viewBox="0.435 0.636 340.648 85.714" xmlns="http://www.w3.org/2000/svg"><path style="stroke:#000" d="M.435.636h340.648V86.35H.435z"/><path fill="#fff" d="M5.788 6.252h110v74h-110z"/><path d="M26.677 64.865a.905.905 0 0 1-.889-.888V23.029c0-.478.41-.888.889-.888h28.232c.273 0 .478.068.615.273.205.137.274.342.274.615l-.069 7.657c0 .478-.41.888-.888.888H36.384v8.272h11.62c.48 0 .89.41.89.888v7.725c0 .479-.41.889-.89.889h-11.62v14.629c0 .478-.342.888-.82.888h-8.887zm52.841.41c-3.281 0-6.562-.615-9.707-1.845a26.313 26.313 0 0 1-8.271-4.922.955.955 0 0 1-.205-1.026l2.392-8.134c.137-.274.342-.479.616-.479a.771.771 0 0 1 .751.205c3.624 3.418 7.725 6.494 12.852 6.768 1.367.068 2.871.137 4.17-.274 4.033-1.298 2.324-5.4-.684-6.63-1.025-.41-2.46-.89-4.306-1.436-2.735-.752-4.99-1.572-6.7-2.393-1.845-.82-3.417-2.119-4.785-3.828-1.298-1.777-1.982-4.101-1.982-6.904 0-2.666.684-4.99 2.05-6.973s3.282-3.554 5.675-4.58 5.195-1.572 8.34-1.572c2.802 0 5.536.41 8.27 1.299a28.891 28.891 0 0 1 7.179 3.35c.341.273.478.683.273 1.093L93.19 34.65c-.068.274-.273.41-.547.479-.205.068-.478.068-.683-.068-3.076-1.914-6.153-4.239-9.776-4.717-2.392-.342-6.015-.205-6.836 2.666-1.025 3.691 4.375 4.648 6.836 5.4 2.735.82 4.99 1.64 6.768 2.461 1.846.889 3.486 2.256 4.785 3.965 1.367 1.777 2.05 4.17 2.05 7.041 0 2.803-.751 5.195-2.187 7.246-1.367 2.05-3.35 3.555-5.81 4.648-2.461.957-5.196 1.504-8.272 1.504z" fill="#111"/><path d="M206.918 37.213c7.862.011 19.536 5.202 19.536 19.47 0 14.282-12.59 19.467-21.049 19.467h-69.62V62.793h69.575c.19-.003 2.597-.094 4.75-1.132 2.15-1.033 2.986-2.43 2.986-4.978 0-3.388-1.314-4.506-2.733-5.211a9.734 9.734 0 0 0-3.473-.902h-.051l-49.192-.364 41.933-25.6h-63.787V11.252h90.817l-.284 12.68L204.6 37.196zm123.744-19.911c5.22 5.177 5.177 12.663 5.112 23.995l-.014 2.626c-.023 6.724-.043 11.585-.748 15.684-.6 3.493-1.992 8.53-7.075 11.918-6.44 4.295-16.062 4.392-37.136 4.602a982.5 982.5 0 0 1-9.131.057c-16.697 0-25.09-.882-30.455-6.212-5.587-5.552-5.555-13.724-5.51-26.098.051-13.807.083-22.14 7.083-27.312 6.036-4.466 14.805-4.58 34.019-4.841l3.831-.051c23.945-.342 33.855-.484 40.024 5.632zM322.51 41.22c.037-6.513.077-13.249-1.186-14.5-1.567-1.553-8.604-1.912-17.968-1.912-3.854 0-8.101.06-12.527.122l-3.846.054c-13.764.185-23.708.319-26.31 2.242-1.642 1.214-1.67 8.388-1.702 16.697-.028 7.71-.056 14.996 1.593 16.637 2.592 2.574 16.578 2.432 30.106 2.298 15.53-.154 26.752-.267 29.912-2.372 1.857-1.24 1.883-7.689 1.914-16.615l.014-2.65z" fill="#fff"/></svg>